<svg width="20" height="25" viewBox="0 0 20 25" fill="none" xmlns="http://www.w3.org/2000/svg">
<path d="M9.72033 25C7.96642 23.5039 6.3407 21.8638 4.86016 20.0968C2.63838 17.4431 1.22045e-06 13.4911 1.22045e-06 9.7252C-0.000962339 7.80191 0.568652 5.92156 1.63676 4.32212C2.70486 2.72269 4.22344 1.47606 6.00031 0.740005C7.77719 0.003953 9.73248 -0.188435 11.6187 0.187188C13.505 0.562811 15.2374 1.48956 16.5968 2.85015C17.5018 3.75117 18.2192 4.82274 18.7073 6.00283C19.1955 7.18293 19.4447 8.44813 19.4407 9.7252C19.4407 13.4911 16.8023 17.4431 14.5805 20.0968C13.1 21.8638 11.4742 23.5039 9.72033 25ZM9.72033 5.55935C8.61547 5.55935 7.55587 5.99825 6.77462 6.7795C5.99337 7.56075 5.55447 8.62035 5.55447 9.7252C5.55447 10.8301 5.99337 11.8897 6.77462 12.6709C7.55587 13.4522 8.61547 13.8911 9.72033 13.8911C10.8252 13.8911 11.8848 13.4522 12.666 12.6709C13.4473 11.8897 13.8862 10.8301 13.8862 9.7252C13.8862 8.62035 13.4473 7.56075 12.666 6.7795C11.8848 5.99825 10.8252 5.55935 9.72033 5.55935Z" fill="white"/>
</svg>
