<svg width="29" height="20" viewBox="0 0 29 20" fill="none" xmlns="http://www.w3.org/2000/svg">
<path d="M3.13333 0H25.2167C27.3 0 28.35 0.983333 28.35 2.98333V17.0167C28.35 19 27.3 20 25.2167 20H3.13333C1.05 20 0 19 0 17.0167V2.98333C0 0.983333 1.05 0 3.13333 0ZM14.1667 14.3333L25.4 5.11667C25.8 4.78333 26.1167 4.01667 25.6167 3.33333C25.1333 2.65 24.25 2.63333 23.6667 3.05L14.1667 9.48333L4.68333 3.05C4.1 2.63333 3.21667 2.65 2.73333 3.33333C2.23333 4.01667 2.55 4.78333 2.95 5.11667L14.1667 14.3333Z" fill="white"/>
</svg>
